<?xml version="1.0" encoding="UTF-8" standalone="no"?>
<!-- Generator: Adobe Illustrator 15.1.0, SVG Export Plug-In . SVG Version: 6.00 Build 0)  -->

<svg
   xmlns:dc="http://purl.org/dc/elements/1.1/"
   xmlns:cc="http://creativecommons.org/ns#"
   xmlns:rdf="http://www.w3.org/1999/02/22-rdf-syntax-ns#"
   xmlns:svg="http://www.w3.org/2000/svg"
   xmlns="http://www.w3.org/2000/svg"
   xmlns:sodipodi="http://sodipodi.sourceforge.net/DTD/sodipodi-0.dtd"
   xmlns:inkscape="http://www.inkscape.org/namespaces/inkscape"
   version="1.1"
   id="Layer_1"
   x="0px"
   y="0px"
   width="179.1396"
   height="100.31818"
   viewBox="0 0 179.1396 100.31818"
   enable-background="new 0 0 100 56"
   xml:space="preserve"
   inkscape:version="0.48.2 r9819"
   sodipodi:docname="computer.svg"><metadata
   id="metadata11"><rdf:RDF><cc:Work
       rdf:about=""><dc:format>image/svg+xml</dc:format><dc:type
         rdf:resource="http://purl.org/dc/dcmitype/StillImage" /></cc:Work></rdf:RDF></metadata><defs
   id="defs9" /><sodipodi:namedview
   pagecolor="#ffffff"
   bordercolor="#666666"
   borderopacity="1"
   objecttolerance="10"
   gridtolerance="10"
   guidetolerance="10"
   inkscape:pageopacity="0"
   inkscape:pageshadow="2"
   inkscape:window-width="1126"
   inkscape:window-height="833"
   id="namedview7"
   showgrid="false"
   inkscape:zoom="3.52"
   inkscape:cx="84.090909"
   inkscape:cy="16.636364"
   inkscape:window-x="141"
   inkscape:window-y="0"
   inkscape:window-maximized="0"
   inkscape:current-layer="Layer_1"
   fit-margin-top="0"
   fit-margin-left="0"
   fit-margin-right="0"
   fit-margin-bottom="0" />
<path
   d="m 102.10958,91.361201 v 1.791397 c 0,0.990642 -0.80076,1.791396 -1.7914,1.791396 H 78.821429 c -0.990642,0 -1.791397,-0.800754 -1.791397,-1.791396 V 91.361201 H 0 v 3.582793 c 0,0 0,5.374186 5.3741883,5.374186 H 173.76542 c 5.37419,0 5.37419,-5.374186 5.37419,-5.374186 v -3.582793 h -77.03003 z"
   id="path3"
   inkscape:connector-curvature="0" />
<path
   d="M 152.26867,0 H 26.870942 C 23.900807,0 21.496753,2.4058449 21.496753,5.3741883 V 7.1655844 80.612825 c 0,2.968343 2.404054,5.374188 5.374189,5.374188 h 1.791396 121.814932 1.7914 c 2.96655,0 5.37419,-2.405845 5.37419,-5.374188 V 7.1655844 5.3741883 C 157.64286,2.4058449 155.23701,0 152.26867,0 z m -1.7914,78.821429 H 28.662338 V 7.1655844 H 150.47727 V 78.821429 z"
   id="path5"
   inkscape:connector-curvature="0" />
</svg>