<?xml version="1.0" encoding="UTF-8" standalone="no"?>
<!-- Generator: Adobe Illustrator 15.1.0, SVG Export Plug-In . SVG Version: 6.00 Build 0)  -->

<svg
   xmlns:dc="http://purl.org/dc/elements/1.1/"
   xmlns:cc="http://creativecommons.org/ns#"
   xmlns:rdf="http://www.w3.org/1999/02/22-rdf-syntax-ns#"
   xmlns:svg="http://www.w3.org/2000/svg"
   xmlns="http://www.w3.org/2000/svg"
   xmlns:sodipodi="http://sodipodi.sourceforge.net/DTD/sodipodi-0.dtd"
   xmlns:inkscape="http://www.inkscape.org/namespaces/inkscape"
   version="1.1"
   id="Layer_1"
   x="0px"
   y="0px"
   width="506.10358"
   height="100.52871"
   viewBox="0 0 506.10356 100.52871"
   enable-background="new 0 0 100 56"
   xml:space="preserve"
   inkscape:version="0.48.2 r9819"
   sodipodi:docname="masthead.svg"><metadata
   id="metadata11"><rdf:RDF><cc:Work
       rdf:about=""><dc:format>image/svg+xml</dc:format><dc:type
         rdf:resource="http://purl.org/dc/dcmitype/StillImage" /><dc:title /></cc:Work></rdf:RDF></metadata><defs
   id="defs9" /><sodipodi:namedview
   pagecolor="#ffffff"
   bordercolor="#666666"
   borderopacity="1"
   objecttolerance="10"
   gridtolerance="10"
   guidetolerance="10"
   inkscape:pageopacity="0"
   inkscape:pageshadow="2"
   inkscape:window-width="1374"
   inkscape:window-height="856"
   id="namedview7"
   showgrid="false"
   inkscape:zoom="1.76"
   inkscape:cx="231.53235"
   inkscape:cy="-4.4597271"
   inkscape:window-x="66"
   inkscape:window-y="0"
   inkscape:window-maximized="1"
   inkscape:current-layer="Layer_1"
   fit-margin-top="0"
   fit-margin-left="0"
   fit-margin-right="0"
   fit-margin-bottom="0" />

<g
   id="g2983"
   transform="matrix(0.80335297,0,0,0.80335297,165.74586,9.727273)"
   style="fill:#404040;fill-opacity:1"><path
     inkscape:connector-curvature="0"
     id="path3"
     d="m 102.10958,91.361201 v 1.791397 c 0,0.990642 -0.80076,1.791396 -1.7914,1.791396 H 78.821429 c -0.990642,0 -1.791397,-0.800754 -1.791397,-1.791396 V 91.361201 H 0 v 3.582793 c 0,0 0,5.374186 5.3741883,5.374186 H 173.76542 c 5.37419,0 5.37419,-5.374186 5.37419,-5.374186 v -3.582793 h -77.03003 z"
     style="fill:#404040;fill-opacity:1" /><path
     inkscape:connector-curvature="0"
     id="path5"
     d="M 152.26867,0 H 26.870942 C 23.900807,0 21.496753,2.4058449 21.496753,5.3741883 V 7.1655844 80.612825 c 0,2.968343 2.404054,5.374188 5.374189,5.374188 h 1.791396 121.814932 1.7914 c 2.96655,0 5.37419,-2.405845 5.37419,-5.374188 V 7.1655844 5.3741883 C 157.64286,2.4058449 155.23701,0 152.26867,0 z m -1.7914,78.821429 H 28.662338 V 7.1655844 H 150.47727 V 78.821429 z"
     style="fill:#404040;fill-opacity:1" /></g>
<path
   inkscape:connector-curvature="0"
   id="path3-6"
   d="M 488.91349,3.2291629 C 474.01951,-3.6623301 454.53955,2.8198509 447.64806,17.68042 440.75657,2.8198509 421.27661,-3.6706841 406.38263,3.2291629 390.51966,10.588445 382.93484,29.383431 395.46483,51.553159 404.36112,67.332594 420.1322,79.21938 447.64806,100.52871 475.16392,79.21938 490.935,67.324241 499.83129,51.553159 512.36128,29.383431 504.77646,10.588445 488.91349,3.2291629 z"
   style="fill:#404040;fill-opacity:1" /><g
   id="g3213"
   transform="translate(-9.7818867e-6,0.09752622)"
   style="fill:#404040;fill-opacity:1"><circle
     id="circle3199"
     r="4.1729999"
     cy="18.700001"
     cx="23.177"
     sodipodi:cx="23.177"
     sodipodi:cy="18.700001"
     sodipodi:rx="4.1729999"
     sodipodi:ry="4.1729999"
     d="m 27.35,18.700001 c 0,2.304684 -1.868316,4.173 -4.173,4.173 -2.304684,0 -4.173,-1.868316 -4.173,-4.173 0,-2.304684 1.868316,-4.173 4.173,-4.173 2.304684,0 4.173,1.868316 4.173,4.173 z"
     style="fill:#404040;fill-opacity:1" /><circle
     id="circle3201"
     r="4.1729999"
     cy="18.700001"
     cx="49.436001"
     sodipodi:cx="49.436001"
     sodipodi:cy="18.700001"
     sodipodi:rx="4.1729999"
     sodipodi:ry="4.1729999"
     d="m 53.609001,18.700001 c 0,2.304684 -1.868316,4.173 -4.173,4.173 -2.304684,0 -4.173,-1.868316 -4.173,-4.173 0,-2.304684 1.868316,-4.173 4.173,-4.173 2.304684,0 4.173,1.868316 4.173,4.173 z"
     style="fill:#404040;fill-opacity:1" /><path
     id="path3203"
     d="m 0,0 v 39.225 h 31.896 v 3.34 L 0,42.567 V 100 h 18.544 l 14.114,-14.114 -8.111,-8.11 8.111,-8.111 -2.371,-2.37 -10.48,10.481 4.598,4.599 -9.279,9.28 H 8.346 V 50.912 h 55.921 v 40.742 h -6.778 l -9.28,-9.28 4.599,-4.599 -10.483,-10.481 -2.371,2.37 8.112,8.111 -8.112,8.11 L 54.069,100 H 72.613 V 42.567 L 40.717,42.566 v -3.34 H 72.613 V 0 H 0 z M 64.267,30.879 H 8.346 V 7.75 h 55.921 v 23.129 z"
     inkscape:connector-curvature="0"
     style="fill:#404040;fill-opacity:1" /><rect
     id="rect3205"
     height="9.6420002"
     width="9.6409998"
     transform="matrix(0.7071,-0.7071,0.7071,0.7071,-44.3617,48.4522)"
     y="72.954002"
     x="31.486"
     style="fill:#404040;fill-opacity:1" /></g><flowRoot
   xml:space="preserve"
   id="flowRoot3219"
   style="font-size:40px;font-style:normal;font-weight:normal;line-height:125%;letter-spacing:0px;word-spacing:0px;fill:#000000;fill-opacity:1;stroke:none;font-family:Sans"
   transform="translate(13.745854,5.7437279e-7)"><flowRegion
     id="flowRegion3221"><rect
       id="rect3223"
       width="34.551807"
       height="43.390644"
       x="82.763634"
       y="35.633976" /></flowRegion><flowPara
     id="flowPara3225">+=</flowPara></flowRoot><text
   xml:space="preserve"
   style="font-size:70.75944519px;font-style:normal;font-weight:normal;line-height:125%;letter-spacing:0px;word-spacing:0px;fill:#404040;fill-opacity:1;stroke:none;font-family:Sans"
   x="94.455605"
   y="72.159309"
   id="text3227"
   sodipodi:linespacing="125%"><tspan
     sodipodi:role="line"
     id="tspan3229"
     x="94.455605"
     y="72.159309">+</tspan></text>

<text
   xml:space="preserve"
   style="font-size:70.43145752px;font-style:normal;font-weight:normal;line-height:125%;letter-spacing:0px;word-spacing:0px;fill:#404040;fill-opacity:1;stroke:none;font-family:Sans"
   x="330.23828"
   y="71.645882"
   id="text3231"
   sodipodi:linespacing="125%"><tspan
     sodipodi:role="line"
     id="tspan3233"
     x="330.23828"
     y="71.645882">=</tspan></text>

</svg>