<?xml version="1.0" encoding="utf-8"?>
<!-- Generator: Adobe Illustrator 14.0.0, SVG Export Plug-In . SVG Version: 6.00 Build 43363)  -->
<!DOCTYPE svg PUBLIC "-//W3C//DTD SVG 1.0//EN" "http://www.w3.org/TR/2001/REC-SVG-20010904/DTD/svg10.dtd">
<svg version="1.0" id="Layer_1" xmlns="http://www.w3.org/2000/svg" xmlns:xlink="http://www.w3.org/1999/xlink" x="0px" y="0px"
	 width="72.613px" height="100px" viewBox="0 0 72.613 100" enable-background="new 0 0 72.613 100" xml:space="preserve">
<circle cx="23.177" cy="18.7" r="4.173"/>
<circle cx="49.436" cy="18.7" r="4.173"/>
<path d="M0,0v39.225h31.896v3.34L0,42.567V100h18.544l14.114-14.114l-8.111-8.11l8.111-8.111l-2.371-2.37l-10.48,10.481l4.598,4.599
	l-9.279,9.28H8.346V50.912h55.921v40.742h-6.778l-9.28-9.28l4.599-4.599L42.325,67.294l-2.371,2.37l8.112,8.111l-8.112,8.11
	L54.069,100h18.544V42.567l-31.896-0.001v-3.34h31.896V0H0z M64.267,30.879H8.346V7.75h55.921V30.879z"/>
<rect x="31.486" y="72.954" transform="matrix(0.7071 -0.7071 0.7071 0.7071 -44.3617 48.4522)" width="9.641" height="9.642"/>
</svg>
