<?xml version="1.0" encoding="utf-8"?>
<!-- Generator: Adobe Illustrator 15.1.0, SVG Export Plug-In . SVG Version: 6.00 Build 0)  -->
<!DOCTYPE svg PUBLIC "-//W3C//DTD SVG 1.1//EN" "http://www.w3.org/Graphics/SVG/1.1/DTD/svg11.dtd">
<svg version="1.1" id="Layer_1" xmlns="http://www.w3.org/2000/svg" xmlns:xlink="http://www.w3.org/1999/xlink" x="0px" y="0px"
	 width="100px" height="100px" viewBox="0 0 100 100" enable-background="new 0 0 100 100" xml:space="preserve">
<path d="M99.029,15.095L83.078,31.046l-11.819-2.305L71.25,28.75l-2.307-11.828L84.897,0.968C82.877,0.339,80.728,0,78.5,0
	C66.626,0,57,9.626,57,21.5c0,3.379,0.802,6.563,2.19,9.409L2.05,88.05l0.001,0.001C0.783,89.317,0,91.067,0,93c0,3.865,3.135,7,7,7
	c1.933,0,3.683-0.783,4.949-2.051l0.001,0.001L69.091,40.81C71.936,42.198,75.121,43,78.5,43c11.874,0,21.5-9.626,21.5-21.5
	C100,19.27,99.66,17.118,99.029,15.095z M9.121,95.121C8.578,95.664,7.828,96,7,96c-1.657,0-3-1.343-3-3
	c0-0.828,0.336-1.578,0.879-2.121S6.172,90,7,90c1.657,0,3,1.343,3,3C10,93.828,9.664,94.578,9.121,95.121z"/>
</svg>
